<svg width="24" height="42" viewBox="0 0 24 42" fill="none" xmlns="http://www.w3.org/2000/svg">
<path fill-rule="evenodd" clip-rule="evenodd" d="M8.92448 17.7681L8.81334 17.6913C8.73463 17.4945 8.79229 17.2755 8.96507 17.1154C9.13786 16.9552 9.40009 16.8775 9.65496 16.911C10.3512 17.0027 11.0706 16.9511 11.7468 16.7611C12.5027 16.5486 13.3125 16.8553 13.5699 17.4518L13.8242 18.0406C13.2669 17.5485 12.3612 17.4207 11.5994 17.7267C10.9102 18.0036 10.1233 18.0601 9.40165 17.8843L8.92448 17.7681ZM13.9167 20.0373C13.3057 20.1199 12.8424 20.0064 12.246 19.8445L11.8209 19.7291L11.4863 20.0031L10.6466 19.6257L11.2609 20.3224C10.9604 20.4561 10.6161 20.4503 10.3202 20.3066C10.0244 20.1629 9.80696 19.896 9.72604 19.577L9.65346 19.2904L8.81966 19.4333C9.68161 18.5265 11.0923 18.4254 12.0747 19.2C12.6642 19.6647 13.2027 19.8653 13.9167 20.0373ZM5.15182 14.3754L5.06986 13.9403C6.60353 13.1019 8.45383 12.9289 10.2996 12.9923L10.8518 13.0112C9.02638 12.6915 7.09516 12.77 5.26981 13.2384L4.95278 13.3197L4.677 11.8571C8.40627 10.4928 13.6353 9.78471 17.5045 11.2003L17.2411 12.3861C14.4643 11.7021 11.5345 11.5938 8.76271 12.0737L9.61496 12.0449C12.2182 11.9565 14.8274 12.1695 17.0642 13.1828L16.7625 14.5418C14.0049 13.8418 7.48763 13.6034 5.15182 14.3754M4.60474 15.5063L4.16471 17.3291C4.14347 17.3867 4.12679 17.4482 4.11513 17.513L4.10015 17.5963L4.0518 17.7966C3.91349 18.3695 3.97636 18.9786 4.22986 19.524C4.21325 19.5277 4.19651 19.5314 4.17963 19.535C4.20146 19.5424 4.22302 19.5492 4.24439 19.5555C4.40753 19.9184 4.40479 20.321 4.25208 20.6636C4.04242 21.1338 3.91981 21.5618 3.84781 22.0752L3.67236 23.3256C3.54864 24.2075 3.74598 25.1005 4.20732 25.855C4.91408 27.011 5.3964 28.0681 5.80255 29.3519L5.8767 29.5863C6.30272 30.9326 8.27975 31.2976 9.60369 30.7067L9.29474 31.3987C8.86657 32.3577 8.86657 33.4537 9.29474 34.4127L9.50264 33.3526C9.80462 31.8122 10.5277 30.3925 11.5828 29.2466C12.0205 28.9555 12.484 28.682 12.9516 28.422C14.7249 27.4354 15.5258 26.182 15.7289 24.1494C15.347 25.8551 13.8606 26.8869 12.7272 27.7945C11.8315 28.5119 10.4141 28.8712 9.41794 29.6728C8.5926 30.337 6.66855 30.3106 6.44788 29.2532C6.21294 28.1273 5.94537 27.3425 5.36773 26.336C4.5263 24.8702 4.34394 23.1365 4.86672 21.5728C5.08172 20.9297 5.12061 20.2444 4.99051 19.5829C5.09827 19.5627 5.20863 19.5352 5.32662 19.5047L5.6159 19.4297L5.85761 19.7404L6.42358 19.4409L6.02557 20.086C6.23835 20.2512 6.47603 20.2793 6.675 20.163C6.87397 20.0466 7.01405 19.7977 7.0577 19.4826L7.09692 19.1995L7.1839 19.2334C7.34971 20.4014 6.85834 22.167 6.02615 22.9753C5.90738 23.0905 5.86588 23.2651 5.92002 23.4216C5.96882 23.5624 6.08694 23.6666 6.23021 23.6987L6.50033 24.1187C6.51062 24.1346 6.52137 24.1502 6.53258 24.1653L6.37458 24.1853C6.23503 24.2031 6.10727 24.2497 5.99957 24.3218C5.85468 24.4194 5.6503 24.4284 5.45634 24.3463C5.26245 24.264 5.10517 24.1016 5.03826 23.9145L5.15573 24.4031C5.25378 24.8107 5.52644 25.1963 5.9051 25.4628C6.0283 25.5495 6.159 25.621 6.29315 25.676L6.20311 25.8291C6.00974 26.1577 6.26487 26.7087 6.49407 26.9476C6.72321 27.1865 7.09731 27.204 7.40059 26.9899C8.18866 27.4868 9.17903 27.6108 10.0238 26.5705C9.12717 27.0854 8.34711 27.3551 7.73365 26.3822C7.63266 26.2127 7.31759 26.2826 7.45317 26.5626L7.17289 26.5632C6.95105 26.5638 6.77181 26.413 6.72582 26.1871C6.69969 26.0589 6.71976 25.9224 6.7769 25.8008C6.89886 25.8141 7.01998 25.8134 7.13744 25.798C7.45434 25.7563 7.79958 25.8177 8.12201 25.973C8.82552 26.312 9.58656 26.3754 10.2134 26.1471C10.8401 25.9188 11.2729 25.4208 11.4025 24.7782L11.1469 25.0091C10.9108 25.2223 10.565 25.3069 10.1974 25.2415C9.82964 25.176 9.47554 24.967 9.22516 24.6674C9.09525 24.512 8.93888 24.3826 8.7689 24.2847C8.954 24.2316 9.11095 24.1022 9.19714 23.9248C9.30536 23.7019 9.28497 23.4379 9.14378 23.2343L8.97165 22.986L8.95739 23.5259C8.9525 23.7123 8.81666 23.869 8.63293 23.9005C8.34047 23.9505 8.0364 23.892 7.78349 23.7369L7.75124 23.717L7.43232 23.7756C7.32625 23.7951 7.21751 23.7939 7.1119 23.772C6.94688 23.7376 6.82198 23.6387 6.7507 23.4859C6.67949 23.3334 6.68392 23.1739 6.76367 23.0255L6.98975 22.6043C7.59468 21.4769 7.91985 19.6187 6.99711 18.7337L6.99698 18.7337C6.57304 18.2805 5.91983 18.3398 5.42044 18.8687C5.25189 19.0471 5.0881 19.1764 4.91702 19.2741C4.89708 19.2029 4.87519 19.1321 4.85121 19.0618C4.68592 18.5765 4.65211 18.1151 4.74886 17.6393C4.99565 17.6079 5.26414 17.66 5.52279 17.8016C6.03717 18.0833 6.59278 18.1452 7.0747 17.9743L7.39329 17.8613L7.46157 17.7853C7.49245 17.5888 7.42561 17.3694 7.2856 17.2079C7.14559 17.0465 6.95326 16.967 6.77963 16.9988C6.3052 17.0857 5.79721 17.0292 5.30258 16.8345C5.19873 16.7936 5.09579 16.771 4.99637 16.7652L5.49289 15.0922C7.94891 14.6498 10.4647 14.6531 12.92 15.1018L15.6457 15.5999L15.6624 16.5781C15.6793 17.5714 15.4895 18.5572 15.1049 19.4732L15.5935 19.6881L16.1295 19.0245C16.3579 18.7417 16.7511 18.6539 17.078 18.8127C17.405 18.9715 17.5792 19.3348 17.4982 19.6891C17.3692 20.2529 17.1134 20.7799 16.75 21.2299C16.4957 21.5448 16.3166 21.9135 16.2263 22.3081L16.4792 25.8349L16.6903 23.8208C16.6773 23.9039 16.6665 23.9875 16.658 24.0716L16.4792 25.8349L15.9083 27.435C16.4316 30.0145 15.7147 32.69 13.9718 34.6622C13.1014 35.6471 12.1712 36.5774 11.1864 37.4477L9.39866 39.0274C8.15576 36.5781 6.34071 34.6427 6.05704 31.4327C5.40643 34.5002 6.2622 37.6939 8.35936 40.0252L9.84951 41.6817C11.1785 39.7222 12.8676 38.0332 14.827 36.7043C18.3301 34.3281 19.5592 29.7412 17.7134 25.9318L16.6903 23.8208C16.8455 22.8349 17.3178 21.9235 18.0392 21.2273C19.6345 19.6873 20.1302 17.3399 19.3125 15.295L20.2369 11.0275C19.4026 10.6983 18.5482 10.4317 17.6803 10.2255L18.389 9.96968C18.539 8.93761 18.2256 7.89187 17.5325 7.11246L16.9178 6.42107C17.3455 7.2984 17.3755 8.31724 17.0001 9.21822L16.6688 10.0133C14.8788 9.68757 13.0439 9.61154 11.2214 9.76979L11.7895 9.14284C11.5212 8.39346 10.9356 7.80072 10.1895 7.5235L9.52753 7.27749C10.1299 7.71576 10.5148 8.39177 10.5843 9.13346L10.6493 9.82726C9.2191 9.99007 7.80036 10.2966 6.42091 10.7397L6.7898 10.0105C6.41511 9.47615 5.82353 9.13469 5.17352 9.0773L4.5968 9.02641C5.16811 9.24226 5.61915 9.69318 5.835 10.2646L6.05958 10.8591C5.89989 10.9135 5.74079 10.9696 5.58228 11.0275L4.33645 11.4833L3.50375 11.2251C2.5571 10.9314 1.82733 10.1726 1.57077 9.21509C1.31427 8.25769 1.56679 7.23566 2.23987 6.50798C3.64259 4.99119 5.792 4.41532 7.76524 5.02748L6.95274 4.31831C9.17903 1.58494 11.1869 1.3384 14.4168 3.12864L17.0983 4.61488L16.3604 3.30533C17.8986 2.46403 19.6416 2.25105 21.1473 3.75663C22.7092 5.31851 22.1049 8.33503 20.753 10.4852C22.9577 8.964 24.7991 5.63345 21.9879 2.82229C20.2618 1.09623 17.4741 1.06145 15.7055 2.74412L14.3336 1.87108C12.9558 0.994339 11.2735 0.735818 9.69608 1.15852C8.11869 1.58116 6.79103 2.64619 6.03619 4.09432L4.43913 4.11607C2.2619 4.14552 0.512512 5.91895 0.512512 8.09638C0.512512 10.1085 2.00637 11.7753 3.95114 12.0403L4.60474 15.5063Z" fill="#2A7FF6"/>
</svg>
